<svg version="1.0" xmlns="http://www.w3.org/2000/svg" viewBox="0 0 640 640">
<path d="M81.7,57.5h48.9v53.9H81.7V57.5z"/>
<path d="M142.8,57.5h48.9v53.9h-48.9V57.5z"/>
<path d="M203.9,57.5h48.9v53.9h-48.9V57.5z"/>
<path d="M265.1,57.5h48.9v53.9h-48.9V57.5z"/>
<path d="M326.2,57.5H375v53.9h-48.9V57.5z"/>
<path d="M387.3,57.5h48.9v53.9h-48.9V57.5z"/>
<path d="M448.4,57.5h48.9v53.9h-48.9V57.5z"/>
<path d="M81.7,124.8h48.9v53.9H81.7V124.8z"/>
<path d="M142.8,124.8h48.9v53.9h-48.9V124.8z"/>
<path d="M203.9,124.8h48.9v53.9h-48.9V124.8z"/>
<path d="M265.1,124.8h48.9v53.9h-48.9V124.8z"/>
<path d="M326.2,124.8H375v53.9h-48.9V124.8z"/>
<path d="M387.3,124.8h48.9v53.9h-48.9V124.8z"/>
<path d="M448.4,124.8h48.9v53.9h-48.9V124.8z"/>
<path d="M448.4,192.1h48.9V246h-48.9V192.1z"/>
<path d="M387.3,259.5h48.9v53.9h-48.9V259.5z"/>
<path d="M387.3,192.1h48.9V246h-48.9V192.1z"/>
<path d="M326.2,192.1H375V246h-48.9V192.1z"/>
<path d="M326.2,326.8H375v53.9h-48.9V326.8z"/>
<path d="M265.1,394h48.9v53.9h-48.9V394z"/>
<path d="M203.9,461.3h48.9v53.9h-48.9V461.3z"/>
<path d="M142.8,461.3h48.9v53.9h-48.9V461.3z"/>
<path d="M81.7,461.3h48.9v53.9H81.7V461.3z"/>
<path d="M203.9,394h48.9v53.9h-48.9V394z"/>
<path d="M142.8,394h48.9v53.9h-48.9V394z"/>
<path d="M81.7,528.6h48.9v53.9H81.7V528.6z"/>
<path d="M142.8,528.6h48.9v53.9h-48.9V528.6z"/>
<path d="M203.9,528.6h48.9v53.9h-48.9V528.6z"/>
<path d="M265.1,528.6h48.9v53.9h-48.9V528.6z"/>
<path d="M326.2,528.6H375v53.9h-48.9V528.6z"/>
<path d="M387.3,528.6h48.9v53.9h-48.9V528.6z"/>
<path d="M448.4,528.6h48.9v53.9h-48.9V528.6z"/>
<path d="M265.1,461.3h48.9v53.9h-48.9V461.3z"/>
<path d="M326.2,461.3H375v53.9h-48.9V461.3z"/>
<path d="M387.3,461.3h48.9v53.9h-48.9V461.3z"/>
<path d="M448.4,461.3h48.9v53.9h-48.9V461.3z"/>
<path d="M326.2,259.5H375v53.9h-48.9V259.5z"/>
<path d="M265.1,259.5h48.9v53.9h-48.9V259.5z"/>
<path d="M265.1,326.8h48.9v53.9h-48.9V326.8z"/>
<path d="M203.9,326.8h48.9v53.9h-48.9V326.8z"/>
<path d="M509.5,124.8h48.9v53.9h-48.9L509.5,124.8L509.5,124.8z"/>
<path d="M509.5,57.5h48.9v53.9h-48.9L509.5,57.5L509.5,57.5z"/>
<path d="M509.5,528.6h48.9v53.9h-48.9L509.5,528.6L509.5,528.6z"/>
<path d="M509.5,461.3h48.9v53.9h-48.9L509.5,461.3L509.5,461.3z"/>
</svg>
