<?xml version="1.0" encoding="utf-8"?>
<!-- Generator: Adobe Illustrator 22.0.0, SVG Export Plug-In . SVG Version: 6.00 Build 0)  -->
<svg version="1.1" id="Layer_1" xmlns="http://www.w3.org/2000/svg" xmlns:xlink="http://www.w3.org/1999/xlink" x="0px" y="0px"
	 viewBox="0 0 157.5 157.5" style="enable-background:new 0 0 157.5 157.5;" xml:space="preserve">
<style type="text/css">
	.st0{fill:#FFFFFF;}
	.st1{fill:none;stroke:#FFFFFF;stroke-width:5;stroke-miterlimit:10;}
	.st2{fill:none;stroke:#FFFFFF;stroke-width:5;stroke-linejoin:bevel;stroke-miterlimit:10;}
	.st3{fill:none;stroke:#FFFFFF;stroke-width:3;stroke-linejoin:round;stroke-miterlimit:10;}
</style>
<g>
	<path class="st0" d="M54.3,129.8c-0.4-1.9-1.3-3.5-2.5-4.9c-1.1-1.5-2.4-2.8-3.9-3.9c-2.8-2.3-6-4.3-9.3-5.9
		c-3.6-1.8-6.7-4.7-8.7-8.4c-1-1.9-1.7-4-1.7-6.3c-0.1-2.3,0.6-4.6,1.8-6.6c1.2-1.9,2.8-3.5,4.5-4.7c1.7-1.3,3.5-2.2,5.4-3l2.7-1.1
		c0.8-0.3,1.6-0.7,2.4-1.1c1.6-0.8,3.1-1.6,4.5-2.6c2.8-1.9,5.3-4.3,6.4-7c0.6-1.3,0.8-2.6,0.5-3.8c-0.2-1.1-0.9-2.1-1.9-2.9
		c-2-1.6-5.4-2.3-8.6-2c-1.7,0.1-3.4,0.4-5,0.8L38.2,67c-1,0.2-1.9,0.5-2.9,0.6c-3.9,0.7-8.1,1-12.4-0.1c-2.1-0.6-4.2-1.6-6-3.1
		c-1.8-1.6-3-3.7-3.7-5.8c-0.6-2.2-0.7-4.4-0.4-6.6c0.3-2.1,1-4.2,2.1-6c1-1.8,2.4-3.5,4-4.8c1.6-1.2,3.1-2.3,4.9-3.3
		c3.4-1.9,7.3-3.3,11.2-3.3c2,0,3.9,0.3,5.8,0.9c1.8,0.6,3.5,1.6,5,2.8c-3.3-1.8-7.1-2.5-10.6-2c-3.6,0.5-6.9,2.1-9.8,4.2
		c-1.5,1-2.9,2.2-4.2,3.4c-1.2,1.1-2.1,2.5-2.8,4c-1.4,3-1.8,6.5-0.7,9.3c1,2.8,3.4,4.6,6.5,5.3c3.1,0.7,6.6,0.4,10-0.4
		c6.4-1.7,15.9-5.1,24.1,0.9c1.9,1.5,3.5,3.9,3.9,6.5c0.5,2.6,0,5.1-1,7.2c-1,2.1-2.3,3.9-3.8,5.4c-1.5,1.5-3.2,2.8-4.9,3.9
		c-1.7,1.1-3.5,2-5.4,2.8c-0.9,0.4-1.8,0.8-2.8,1.1l-2.6,0.9c-3.2,1.3-6.2,3-8,5.5c-0.8,1.2-1.3,2.6-1.4,4.1
		c-0.1,1.5,0.3,3.1,0.9,4.6c1.3,3,3.7,5.7,6.7,7.6c3.2,2.1,6.3,4.4,9,7.3c1.3,1.4,2.5,2.9,3.5,4.6c0.5,0.8,0.9,1.7,1.2,2.6
		C54.1,127.9,54.3,128.8,54.3,129.8z"/>
</g>
<path class="st1" d="M104,36.5c0,0,9.1-16,30.2-2.7c17.5,11,8.9,30.8,0.1,36.5c-7.7,5-12.4,7.2-31.7-0.2"/>
<polygon class="st2" points="61.3,122.4 68.6,125.7 83.2,93.8 75.9,90.5 "/>
<polyline class="st2" points="83.2,93.8 89,96.4 91.8,90.2 91.8,83.7 91.2,83.5 78.6,77.8 77.9,77.5 73.3,81.9 70.5,88 75.9,90.5 
	"/>
<polyline class="st3" points="68.6,125.7 67,125 63.3,133.1 59.9,135.2 58.5,131.4 62.3,122.9 61.3,122.4 "/>
<polyline class="st2" points="77.9,77.5 91.1,52.4 101.3,57.1 91.8,83.7 "/>
<polyline class="st2" points="92.6,53.1 100.3,36.3 108.1,39.8 100.4,56.7 "/>
</svg>
