<?xml version="1.0" encoding="utf-8"?>
<!-- Generator: Adobe Illustrator 25.2.3, SVG Export Plug-In . SVG Version: 6.00 Build 0)  -->
<svg version="1.0" id="Layer_1" xmlns="http://www.w3.org/2000/svg" xmlns:xlink="http://www.w3.org/1999/xlink" x="0px" y="0px"
	 viewBox="0 0 640 640" enable-background="new 0 0 640 640" xml:space="preserve">
<g>
	
		<path fill="#FFFFFF" stroke="#FFFFFF" stroke-width="20" stroke-linecap="round" stroke-linejoin="round" stroke-miterlimit="10" d="
		M195.4,548.1c-1.7-8.1-5.6-15-10.7-21c-4.7-6.4-10.3-12-16.7-16.7c-12-9.9-25.7-18.4-39.9-25.3c-15.4-7.7-28.7-20.2-37.3-36
		c-4.3-8.1-7.3-17.2-7.3-27c-0.4-9.9,2.6-19.7,7.7-28.3c5.1-8.1,12-15,19.3-20.2c7.3-5.6,15-9.4,23.2-12.9l11.6-4.7
		c3.4-1.3,6.9-3,10.3-4.7c6.9-3.4,13.3-6.9,19.3-11.1c12-8.1,22.7-18.4,27.4-30c2.6-5.6,3.4-11.1,2.1-16.3c-0.9-4.7-3.9-9-8.1-12.4
		c-8.6-6.9-23.2-9.9-36.9-8.6c-7.3,0.4-14.6,1.7-21.4,3.4l-11.6,2.6c-4.3,0.9-8.1,2.1-12.4,2.6c-16.7,3-34.7,4.3-53.2-0.4
		c-9-2.6-18-6.9-25.7-13.3c-7.7-6.9-12.9-15.9-15.9-24.9c-2.6-9.4-3-18.9-1.7-28.3c1.3-9,4.3-18,9-25.7c4.3-7.7,10.3-15,17.2-20.6
		c6.9-5.1,13.3-9.9,21-14.1c14.6-8.1,31.3-14.1,48-14.1c8.6,0,16.7,1.3,24.9,3.9c7.7,2.6,15,6.9,21.4,12
		c-14.1-7.7-30.4-10.7-45.5-8.6c-15.4,2.1-29.6,9-42,18c-6.4,4.3-12.4,9.4-18,14.6c-5.1,4.7-9,10.7-12,17.2c-6,12.9-7.7,27.9-3,39.9
		c4.3,12,14.6,19.7,27.9,22.7s28.3,1.7,42.9-1.7c27.4-7.3,68.2-21.9,103.3,3.9c8.1,6.4,15,16.7,16.7,27.9c2.1,11.1,0,21.9-4.3,30.9
		c-4.3,9-9.9,16.7-16.3,23.2c-6.4,6.4-13.7,12-21,16.7c-7.3,4.7-15,8.6-23.2,12c-3.9,1.7-7.7,3.4-12,4.7l-11.1,3.9
		c-13.7,5.6-26.6,12.9-34.3,23.6c-3.4,5.1-5.6,11.1-6,17.6c-0.4,6.4,1.3,13.3,3.9,19.7c5.6,12.9,15.9,24.4,28.7,32.6
		c13.7,9,27,18.9,38.6,31.3c5.6,6,10.7,12.4,15,19.7c2.1,3.4,3.9,7.3,5.1,11.1C194.5,539.9,195.4,543.8,195.4,548.1z"/>
</g>
<path fill="none" stroke="#FFFFFF" stroke-width="35" stroke-linecap="round" stroke-miterlimit="10" d="M442.4,139.9
	c7.2-13.7,45.8-63.6,127.8-18.3c79.8,44,37.1,137.9,17.1,159c-20,21-40.1,52.1-126.7,18.9"/>
<polygon fill="#FFFFFF" stroke="#FFFFFF" stroke-width="25" stroke-linejoin="round" stroke-miterlimit="10" points="246.1,524.3 
	278.8,539.1 344.3,396 311.6,381.2 "/>
<polyline fill="#FFFFFF" stroke="#FFFFFF" stroke-width="25" stroke-linejoin="round" stroke-miterlimit="10" points="344.3,396 
	370.3,407.7 382.9,379.9 382.9,350.7 380.2,349.8 323.7,324.3 320.5,322.9 299.9,342.6 287.4,370 311.6,381.2 "/>
<polyline fill="#FFFFFF" stroke="#FFFFFF" stroke-width="15" stroke-linejoin="round" stroke-miterlimit="10" points="278.8,539.1 
	271.7,536 255.1,572.3 239.8,581.7 233.5,564.7 250.6,526.5 246.1,524.3 "/>
<polyline fill="#FFFFFF" stroke="#FFFFFF" stroke-width="25" stroke-linejoin="round" stroke-miterlimit="10" points="320.5,322.9 
	379.8,210.3 425.5,231.4 382.9,350.7 "/>
<polyline fill="#FFFFFF" stroke="#FFFFFF" stroke-width="25" stroke-linejoin="round" stroke-miterlimit="10" points="386.5,213.5 
	421,138.1 456,153.8 421.5,229.6 "/>
</svg>
