<svg xmlns="http://www.w3.org/2000/svg" viewBox="0 0 640 640">
<g>
	<g id="Ear_Right">
		<path fill="#F2F2F2" d="M454.4,168.8c11.9-34.2,41.9-92.3,109.5-97.6h0.4c0.8-0.1,1.5-0.1,2.5-0.1c16.6,0,36.4,17,44.5,32.9
			c2.2,4.5,4.8,11.2,3.6,17.5l-1.2,5.9l-5.3,2.9c-16.1,9-91.6,38.1-137.6,54.7l-25.4,9.3L454.4,168.8z"/>
		<g>
			<path d="M566.7,83.9c10,0,26.4,12.8,33,25.8c2.1,4.2,2.8,7.6,2.5,9.4c-13.9,7.8-83.8,35-135.7,53.9c11-31.6,38.3-84.5,98.6-89
				l0.6-0.1C566,83.9,566.3,83.9,566.7,83.9 M566.7,58.3c-1.3,0-2.6,0.1-3.8,0.2h-0.1c-17.6,1.4-34.2,6.2-49.2,14.4
				c-13,7-24.9,16.7-35.4,28.5c-18.8,21.3-29.8,46-35.8,63.2l-17.9,51.1l50.9-18.6c37.5-13.7,120.9-45.3,139.4-55.7l10.6-6l2.1-12
				c1.4-7.8-0.4-16.6-4.8-25.5c-4.9-9.5-12.8-18.9-22.3-26.3C592.4,65.6,580.2,58.3,566.7,58.3L566.7,58.3z"/>
		</g>
	</g>
	<g id="Ear_Left">
		<path fill="#F2F2F2" d="M30.8,306.1c-4.8-5.6-5.8-13.9-5.9-19.9c-0.1-18.4,9.3-42.4,23.5-49l0.4-0.1c15.7-7.9,32.3-11.9,49.2-11.9
			c39.5,0,73.4,21.5,94.9,39.5l20.7,17.4l-26.5,5.1c-45.6,8.7-125.6,22.7-146,23.5l-6.2,0.2L30.8,306.1z"/>
		<path d="M98,238.1c36.3,0,68,20.8,86.7,36.4c-51,9.6-125.9,22.6-144.1,23.3c-1.5-1.8-2.7-5.9-2.8-11.6
			c-0.1-16.7,8.7-33.9,16.1-37.2l0.5-0.2C68.5,241.8,83.2,238.1,98,238.1 M98,212.5c-18.8,0-37.4,4.5-55,13.2l-0.1,0.1
			c-19.5,9-30.9,37.8-30.8,60.6c0,8.1,1.6,19.6,8.9,28.1l8,9.4l12.3-0.5c23.8-0.8,114.9-17.4,148-23.6l53.1-10.1L201,254.9
			C178.1,235.7,141.4,212.5,98,212.5L98,212.5z"/>
	</g>
	<g id="Tongue">
		<path fill="#FF0000" d="M316.7,568.9c-17.4,0-32.9-9.4-40.5-15c-6.1-4.5-20.3-16-21.5-27.8l-0.2-2l0.5-2
			c2.9-13.5,28.5-34.7,43.6-46l8.9-6.8l7.9,7.9c17.7,17.7,31,31,40.5,40.6l6.2,6.2l-2.5,12.6l-1.2,2c-8.3,13.7-16.6,22.6-25.4,26.8
			C328.1,567.8,322.7,568.9,316.7,568.9z"/>
		<path d="M306.2,486.2c15,14.9,29.6,29.6,40.5,40.6l1.4,1.4l-0.7,3.8c-6.2,10.2-13,18.4-20,21.8c-3.1,1.5-6.7,2.2-10.7,2.2
			c-23.1,0-48.4-23.1-49.3-31.4C268.8,518.4,285.8,501.7,306.2,486.2 M308.5,452.3l-17.9,13.5c-10.9,8.2-21.1,17-29,24.8
			c-11.9,11.7-17.5,20-19.3,28.7l-0.8,4l0.5,4c1.6,16.3,17.5,30.1,26.7,36.9c8.9,6.6,27.1,17.5,48,17.5c7.9,0,15.3-1.6,21.8-4.8
			c11.2-5.4,21.1-15.7,30.8-31.7l2.3-3.9l0.8-4.5l0.7-3.8l2.6-13.3l-9.5-9.6l-1.4-1.4c-9.6-9.6-22.9-23-40.6-40.8L308.5,452.3
			L308.5,452.3z"/>
	</g>
	<g>
		<path fill="#F2F2F2" d="M365.8,517.2c-1.5,0-2.9,0-4.2-0.1l-4.8-0.2l-3.5-3.4c-0.4-0.4-0.7-0.7-1.1-1.1
			c-5.8-5.9-12.3-12.3-19.3-19.4c-10.5-10.5-21.8-21.8-32.9-32.8l-9.7-9.7l-25.8-25.7c-7.3-7.3-12.9-12.8-15.7-15.6l-2-2l-2.2-5.9
			l-37.9-101.7l-5.8-15.5l1.6-4.5c1.2-3.1,3.1-8,5.6-14c8.7-20.1,23.4-48.3,44.2-68.1c12.2-11.7,27.5-21.6,45.6-29.2l-0.1-0.4
			l6.6-2.3l6.3-2.7l0.1,0.4c21.5-7.5,40.5-10.5,49.7-11.9c4.3-0.7,8.8-1.1,13.4-1.1c27.7,0,52.5,12.6,68.5,23
			c5.9,3.9,10.2,7.3,12.2,8.9l2.7,2.2l1.6,4.5l0.4,0.8l4.7,12.5l39.4,105.4l-3.2,75.3l0,0l-3.3,77.9l-4.6,3.6
			c-2.1,1.6-5.6,4.3-10.2,7.6c-8.6,6.2-18,12.2-27.1,17.5c-21.4,12.2-42.1,20.6-61.6,24.7C383.8,516.3,374.5,517.2,365.8,517.2z"/>
		<path d="M373.8,163.3c24.9,0,47.7,11.9,61.4,20.9c5.1,3.4,8.9,6.3,11.3,8.1l0.5,1.2l0.2,0.7l4.7,12.6l38.4,102.9l-2.5,58.7
			c-11.4-1.5-22.1-2.2-32.2-2.2c-9.4,0-18.2,0.6-26.7,1.9c-9.4,1.4-18.2,3.5-26.9,6.3c-1.8,0.6-3.5,1.2-5.3,1.9l-16.2-39.5
			L369.7,310l-55.1-134.5c20.4-7.2,39-10.1,47.8-11.4C366.2,163.5,369.9,163.3,373.8,163.3 M303.7,179.8L357,309.9l10.9,26.8
			l18,43.9c-28.4,12.8-54.7,33.6-86.6,60.8c-8.8-8.7-16.9-16.9-23.8-23.7c-8.3-8.2-14.7-14.6-17.9-17.7l-1.2-3.3l-37.8-101.4
			l-4.1-11c1.2-3.2,2.9-7.8,5.4-13.4c7.6-17.7,21.6-45.1,41.2-64C273.7,194.8,288.9,186.1,303.7,179.8 M455.4,377.9
			c9.9,0,20.4,0.8,31.8,2.3l-3.2,74.2c-2.3,1.9-5.6,4.3-9.7,7.3c-6.7,4.8-15.6,10.8-26,16.7c-16.6,9.5-36.8,18.8-57.9,23.3
			c-8.2,1.8-16.4,2.7-24.8,2.7c-1.2,0-2.5,0-3.6-0.1c-0.2-0.2-0.6-0.6-0.8-0.8c-5.8-5.9-12.3-12.5-19.3-19.4
			c-10.5-10.5-21.8-21.8-32.9-32.8c-0.5-0.5-0.9-0.9-1.4-1.4c37.4-32.1,66.3-54.4,99.7-65c8.7-2.7,17.6-4.7,27.1-5.9
			C441.3,378.3,448.3,377.9,455.4,377.9 M373.8,137.6c-5.2,0-10.3,0.4-15.4,1.2c-7.9,1.2-22.8,3.5-40.4,8.7l-0.6-1.4l-18,7.6
			l-18.9,6.7l0.6,1.5c-14.6,7.4-27.3,16.3-37.9,26.4c-22.3,21.5-37.9,51.2-47.1,72.4c-2.7,6.2-4.7,11.4-5.9,14.7l-3.3,8.9l3.3,8.9
			l4.1,11l37.9,101.6l1.2,3.3l2,5.3l4,4c2.6,2.6,7.4,7.4,13.7,13.6l4,4c6.8,6.8,15,14.9,23.8,23.7l8.2,8.2c0.4,0.4,0.6,0.7,0.9,0.9
			l0.5,0.5l0,0l0,0c11.5,11.5,22.9,22.9,32.8,32.8c8.2,8.3,14.2,14.2,19.1,19.3c0.4,0.4,0.8,0.8,1.2,1.2l6.9,6.8l9.7,0.5
			c1.5,0.1,3.1,0.1,4.8,0.1c9.6,0,19.7-1.1,30.1-3.3c20.8-4.3,42.8-13.2,65.3-26.1c9.6-5.5,19.1-11.6,28.2-18.2
			c4.8-3.4,8.5-6.2,10.7-8l9.2-7.3l0.5-11.7l2.5-57.9l0,0l1.2-28.1l2.5-58.7l0.2-5.2l-1.8-4.8l-37.8-102.9l-4.7-12.5l-0.2-0.7v-0.1
			v-0.1l-0.5-1.2l-2.5-6.6l-5.4-4.3c-2.7-2.2-7.3-5.6-13.3-9.6C431.9,151.3,404.7,137.6,373.8,137.6L373.8,137.6z"/>
	</g>
	<path id="Nose" d="M359.9,456.2c0,0,70.4-36.3,93-39.8C457.8,436.4,406.2,494,359.9,456.2z"/>
	<g id="Eye_Left">
		<path fill="#FCEE72" d="M290.4,367.7c-10.2,0-19.6-5.1-25.1-13.6c-4.3-6.7-5.9-14.7-4.2-22.6c1.6-7.9,6.2-14.6,12.9-18.9
			c4.9-3.2,10.6-4.9,16.3-4.9c10.2,0,19.6,5.1,25.1,13.6c4.3,6.7,5.9,14.7,4.2,22.6c-1.6,7.9-6.2,14.6-12.9,18.9
			C301.9,366.1,296.3,367.7,290.4,367.7z"/>
		<path d="M290.4,319.3c6.2,0,12.1,3.2,15.5,8.3c2.7,4.1,3.6,9,2.6,13.9c-1.1,4.8-3.9,8.9-8,11.6c-3.1,2-6.5,3.1-10.1,3.1
			c-6.2,0-12-3.2-15.5-8.3c-2.7-4.1-3.6-9-2.6-13.9c1.1-4.8,3.9-8.9,8-11.6C283.3,320.4,286.9,319.3,290.4,319.3 M290.4,296.3
			c-8.1,0-15.9,2.3-22.7,6.8c-9.3,6-15.6,15.4-18,26.2c-2.2,10.9-0.2,22,5.9,31.2c7.6,11.7,20.7,18.8,34.8,18.8
			c8.1,0,15.9-2.3,22.7-6.7c9.3-6.1,15.6-15.4,18-26.2c2.2-10.8,0.2-22-5.9-31.2C317.5,303.3,304.5,296.3,290.4,296.3L290.4,296.3z"
			/>
	</g>
	<g id="Eye_Right">
		<path fill="#A5FFFF" d="M425.1,319.8c-10.2,0-19.5-5.1-25.1-13.6c-4.3-6.7-5.9-14.7-4.2-22.6c1.6-7.9,6.2-14.6,12.9-18.9
			c4.9-3.2,10.6-4.8,16.3-4.8c10.2,0,19.6,5.1,25.1,13.6c4.3,6.7,5.9,14.7,4.2,22.6c-1.6,7.9-6.2,14.6-12.9,18.9
			C436.6,318.1,431,319.8,425.1,319.8z"/>
		<path d="M425.1,271.4c6.2,0,12,3.2,15.5,8.3c5.5,8.5,3.2,20-5.4,25.5c-3.1,2-6.5,3.1-10,3.1c-6.2,0-12-3.2-15.5-8.3
			c-2.7-4.1-3.6-9-2.6-13.9c1.1-4.8,3.9-8.9,8-11.6C418.1,272.4,421.5,271.4,425.1,271.4 M425.1,248.4c-8.1,0-15.9,2.3-22.7,6.7
			c-9.3,6.1-15.6,15.4-18,26.3c-2.2,10.8-0.2,21.8,5.9,31.1c7.8,11.7,20.7,18.8,34.8,18.8c8.1,0,15.9-2.3,22.7-6.8
			c9.3-6.1,15.6-15.4,18-26.2c2.2-10.8,0.2-22-5.9-31.2C452.1,255.4,439.2,248.4,425.1,248.4L425.1,248.4z"/>
	</g>
	<g id="Spots_Lower">
		<path d="M468.7,383.2c-3.3,0-6,2.7-6,6s2.7,6,6,6c3.3,0,6-2.7,6-6S472,383.2,468.7,383.2z"/>
		<path d="M447,383.2c-3.3,0-6,2.7-6,6s2.7,6,6,6c3.3,0,6-2.7,6-6S450.3,383.2,447,383.2z"/>
	</g>
	<g id="Spots_Upper">
		<path d="M329.7,183.9c-3.3,0-6,2.7-6,6s2.7,6,6,6c3.3,0,6-2.7,6-6C335.7,186.6,333,183.9,329.7,183.9z"/>
		<circle cx="339.7" cy="211.6" r="6"/>
		<circle cx="348.1" cy="231.7" r="6"/>
	</g>
</g>
</svg>
