<?xml version="1.0" standalone="no"?>
<!DOCTYPE svg PUBLIC "-//W3C//DTD SVG 20010904//EN"
 "http://www.w3.org/TR/2001/REC-SVG-20010904/DTD/svg10.dtd">
<svg version="1.0" xmlns="http://www.w3.org/2000/svg"
 width="700.000000pt" height="700.000000pt" viewBox="0 0 700.000000 700.000000"
 preserveAspectRatio="xMidYMid meet">
<metadata>
Created by potrace 1.11, written by Peter Selinger 2001-2013
</metadata>
<g transform="translate(0.000000,700.000000) scale(0.100000,-0.100000)"
fill="#000000" stroke="none">
<path d="M5220 5843 c-164 -10 -341 -74 -476 -174 -28 -20 -85 -74 -126 -119
-66 -70 -79 -80 -96 -71 -14 8 -36 4 -92 -17 -72 -27 -73 -28 -100 -87 -15
-33 -42 -91 -60 -130 -18 -38 -51 -113 -75 -165 -24 -52 -67 -147 -97 -210
-55 -115 -55 -115 -104 -132 -40 -14 -52 -24 -66 -55 -10 -21 -45 -90 -78
-153 -34 -63 -91 -171 -127 -240 -100 -191 -162 -308 -203 -385 -21 -38 -62
-116 -91 -173 -47 -91 -67 -116 -158 -205 -104 -102 -105 -103 -172 -246 l-67
-144 27 -74 26 -73 67 -32 c38 -17 68 -35 68 -39 0 -8 -78 -183 -135 -304 -18
-38 -45 -97 -60 -130 -15 -33 -44 -98 -66 -145 -22 -47 -106 -231 -188 -410
l-148 -325 23 -63 24 -62 -66 -148 c-37 -81 -67 -158 -67 -172 -1 -14 15 -68
36 -121 28 -72 43 -99 62 -107 30 -14 40 -10 144 53 l83 50 50 105 c27 58 57
122 65 142 8 21 18 36 21 35 4 -1 39 9 79 23 l72 24 55 121 c30 66 67 147 82
180 14 33 49 107 75 164 27 57 49 105 49 107 0 3 18 41 39 87 39 83 139 300
181 392 12 28 34 75 47 105 14 30 36 79 49 108 22 48 40 62 57 45 4 -4 35 -18
70 -33 l62 -26 73 30 c41 16 76 36 79 45 8 23 36 84 79 176 37 80 37 80 44
250 l7 170 182 505 c243 674 230 635 220 651 -19 29 -8 57 122 339 22 47 72
157 112 245 l73 160 -28 75 c-27 71 -32 76 -75 95 l-46 20 33 38 c18 21 61 58
95 83 235 167 523 165 866 -7 181 -90 314 -192 406 -311 202 -262 193 -636
-22 -969 -104 -161 -268 -291 -477 -377 -199 -83 -462 -55 -873 90 -188 67
-217 76 -240 72 -110 -17 -129 -166 -27 -210 154 -66 459 -161 630 -196 150
-30 373 -30 486 0 224 61 530 266 640 428 79 117 103 158 136 229 119 254 147
535 79 763 -89 298 -315 530 -681 701 -211 99 -409 144 -588 134z m-605 -648
c19 -8 35 -19 35 -24 0 -18 -239 -536 -247 -536 -15 0 -133 58 -133 65 0 8 30
78 88 201 21 46 65 141 96 211 l58 127 34 -14 c19 -8 50 -22 69 -30z m-410
-718 c50 -24 105 -49 123 -56 17 -8 32 -16 32 -20 0 -3 -14 -44 -31 -91 -16
-47 -93 -263 -171 -480 -77 -217 -142 -396 -143 -398 -3 -4 -378 168 -388 178
-5 4 7 36 26 71 55 103 120 225 193 364 37 72 96 184 131 250 35 66 76 144 91
173 14 28 31 52 37 52 5 0 51 -20 100 -43z m-473 -1164 l238 -108 0 -95 c-1
-89 -3 -100 -38 -171 l-37 -76 -304 139 c-168 76 -306 139 -307 141 -1 1 13
36 32 77 25 55 51 92 97 137 34 33 67 61 72 62 6 1 117 -47 247 -106z m-236
-513 l52 -23 -14 -34 c-8 -19 -29 -64 -45 -101 -17 -37 -50 -110 -74 -162 -23
-52 -61 -133 -83 -180 -22 -47 -72 -155 -110 -240 -38 -85 -86 -189 -105 -230
-57 -122 -97 -211 -97 -216 0 -3 -7 -16 -16 -29 l-16 -24 -58 29 -59 30 29 58
c15 32 52 110 80 173 86 189 96 211 130 284 18 39 67 147 110 240 114 249 129
283 166 363 19 40 34 77 34 83 0 12 1 12 76 -21z m-669 -1407 c21 -10 39 -18
41 -19 1 0 -21 -54 -50 -119 -42 -94 -60 -122 -88 -141 l-35 -24 -8 27 c-5 16
-9 33 -9 39 -1 10 103 254 109 254 1 0 19 -8 40 -17z"/>
<path d="M1414 5449 c-185 -32 -442 -163 -606 -309 -59 -52 -149 -179 -185
-260 -63 -140 -78 -376 -32 -498 80 -211 240 -343 477 -392 165 -35 420 -21
642 35 11 3 30 7 43 10 26 6 130 28 137 30 120 27 312 25 398 -5 4 -1 14 -5
22 -7 33 -11 96 -44 115 -61 55 -46 78 -91 83 -161 4 -65 2 -74 -36 -154 -87
-178 -302 -341 -632 -476 -206 -85 -326 -160 -425 -266 -236 -253 -211 -599
65 -876 81 -82 137 -122 265 -190 173 -91 335 -200 454 -304 56 -49 152 -176
182 -240 39 -84 36 -49 -4 44 -89 204 -277 405 -557 596 -235 159 -329 279
-378 485 -27 111 18 240 113 333 90 87 204 147 430 228 50 17 134 53 187 80
286 141 470 315 561 533 26 61 31 86 33 176 4 114 -6 161 -49 246 -63 124
-180 212 -357 269 -76 25 -101 28 -230 29 -131 1 -251 -7 -268 -18 -4 -2 -25
-7 -47 -10 -21 -4 -97 -22 -168 -41 -219 -60 -281 -70 -422 -67 -306 5 -471
160 -461 432 6 149 58 275 159 386 59 64 197 173 293 231 235 142 486 173 708
88 34 -13 70 -26 81 -30 11 -5 2 5 -20 20 -60 42 -172 91 -245 107 -75 17
-251 21 -326 7z"/>
</g>
</svg>
